<svg width="18" height="20" viewBox="0 0 18 20" fill="none" xmlns="http://www.w3.org/2000/svg">
<g clip-path="url(#clip0_92_15)">
<path d="M4.59998 9.49068C4.59998 9.08549 4.44194 8.69689 4.16064 8.41038C3.87933 8.12387 3.4978 7.9629 3.09998 7.9629C2.70215 7.9629 2.32062 8.12387 2.03932 8.41038C1.75801 8.69689 1.59998 9.08549 1.59998 9.49068V11.5277C1.59998 13.5537 2.39015 15.4967 3.79667 16.9292C5.2032 18.3618 7.11085 19.1666 9.09998 19.1666C11.0891 19.1666 12.9968 18.3618 14.4033 16.9292C15.8098 15.4967 16.6 13.5537 16.6 11.5277V6.43513C16.6 6.02993 16.4419 5.64134 16.1606 5.35482C15.8793 5.06831 15.4978 4.90735 15.1 4.90735C14.7022 4.90735 14.3206 5.06831 14.0393 5.35482C13.758 5.64134 13.6 6.02993 13.6 6.43513" stroke="#8B8B8B" stroke-width="1.5" stroke-linecap="round" stroke-linejoin="round"/>
<path d="M13.6 8.98144V3.37958C13.6 2.97439 13.4419 2.5858 13.1606 2.29928C12.8793 2.01277 12.4978 1.85181 12.1 1.85181C11.7022 1.85181 11.3206 2.01277 11.0393 2.29928C10.758 2.5858 10.6 2.97439 10.6 3.37958V8.98144" stroke="#8B8B8B" stroke-width="1.5" stroke-linecap="round" stroke-linejoin="round"/>
<path d="M7.59998 8.98152V2.36115C7.59998 1.95596 7.75801 1.56736 8.03932 1.28085C8.32062 0.994336 8.70215 0.833374 9.09998 0.833374C9.4978 0.833374 9.87933 0.994336 10.1606 1.28085C10.4419 1.56736 10.6 1.95596 10.6 2.36115V3.37967" stroke="#8B8B8B" stroke-width="1.5" stroke-linecap="round" stroke-linejoin="round"/>
<path d="M4.59998 12.037V3.37958C4.59998 2.97439 4.75801 2.5858 5.03932 2.29928C5.32062 2.01277 5.70215 1.85181 6.09998 1.85181C6.4978 1.85181 6.87933 2.01277 7.16064 2.29928C7.44194 2.5858 7.59998 2.97439 7.59998 3.37958" stroke="#8B8B8B" stroke-width="1.5" stroke-linecap="round" stroke-linejoin="round"/>
</g>
<defs>
<clipPath id="clip0_92_15">
<rect width="18" height="20" fill="white"/>
</clipPath>
</defs>
</svg>
