<svg width="20" height="20" viewBox="0 0 20 20" fill="none" xmlns="http://www.w3.org/2000/svg">
<g clip-path="url(#clip0_101_546)">
<path d="M10 1.25C7.67936 1.25 5.45376 2.17187 3.81282 3.81282C2.17187 5.45376 1.25 7.67936 1.25 10C1.25 12.3206 2.17187 14.5462 3.81282 16.1872C5.45376 17.8281 7.67936 18.75 10 18.75C12.3206 18.75 14.5462 17.8281 16.1872 16.1872C17.8281 14.5462 18.75 12.3206 18.75 10C18.75 7.67936 17.8281 5.45376 16.1872 3.81282C14.5462 2.17187 12.3206 1.25 10 1.25V1.25Z" stroke="#B0B0B0" stroke-width="1.25" stroke-linecap="round" stroke-linejoin="round"/>
<path d="M10 15V10" stroke="#B0B0B0" stroke-width="1.25" stroke-linecap="round" stroke-linejoin="round"/>
<circle cx="10" cy="7" r="1" fill="#B0B0B0"/>
</g>
<defs>
<clipPath id="clip0_101_546">
<rect width="20" height="20" fill="white"/>
</clipPath>
</defs>
</svg>
