<svg width="60" height="35" viewBox="0 0 60 35" fill="none" xmlns="http://www.w3.org/2000/svg">
<path d="M1 0.861244H0.861244V1V9.04202V9.18057V9.18077V9.31933V17.3613V17.4999V17.5001V17.6387V25.6807V25.8192V25.8194V25.958V34V34.1388H1H9.04785H9.1866H9.32536H17.3732H17.43L17.4705 34.099L25.7958 25.9183L25.8948 25.821L25.7975 25.722L17.7496 17.5413L17.709 17.5L17.7496 17.4587L25.7975 9.27798L25.8932 9.18067L25.7975 9.08336L17.7496 0.902692L17.512 0.661098V1V9.04202V9.1784L17.6437 9.18067L17.512 9.18294V9.31933V17.2998V17.3613V17.6387V17.7002V25.6807V25.8171L17.6436 25.8193L17.5166 25.8215L17.512 25.9532L17.512 25.9556V25.8192H17.3732H9.32536H9.1866V25.6807V17.6387V17.5001V17.4999V17.3613V9.31933V9.18077V9.18057V9.04202V1V0.861244H9.04785H1ZM21.9928 17.5405L21.8946 17.6387L21.9928 17.7368L30.0407 25.7788L30.1405 25.8786L30.2385 25.7771L38.0089 17.7351L38.102 17.6387L38.0089 17.5422L30.2385 9.50022L30.1405 9.39874L30.0407 9.49849L21.9928 17.5405ZM34.2017 25.7229L34.106 25.8218L34.2042 25.9183L42.5295 34.099L42.57 34.1388H42.6268H50.6746H50.8134H50.9522H59H59.1388V34V25.958V25.9019L59.0997 25.8615L51.0519 17.5422L51.0111 17.5L51.0519 17.4578L59.0997 9.13849L59.1388 9.09815V9.04202V1V0.861244H59H50.9522L50.8134 0.861244L50.6746 0.861244L42.3493 0.861245L42.2911 0.861245L42.2504 0.902692L34.2025 9.08336L34.1076 9.17986L34.2017 9.27715L42.1562 17.5L34.2017 25.7229ZM50.8134 17.6387V17.7043V25.6807V25.8147L50.9439 25.8192H50.8134H50.6746H42.6268H42.488V25.9556L42.488 25.9532L42.4834 25.8215L42.3564 25.8193L42.488 25.8171V25.6807V17.5V9.31933V9.18294L42.3563 9.18067L42.488 9.1784V9.04437L42.4881 9.0468L42.4927 9.18077H42.6268H50.6746H50.8134V17.2957V17.3613V17.6387Z" fill="white" stroke="white" stroke-width="0.277512"/>
</svg>
