<svg width="22" height="22" viewBox="0 0 22 22" fill="none" xmlns="http://www.w3.org/2000/svg">
<path d="M21 11C21 16.5228 16.5228 21 11 21C5.47715 21 1 16.5228 1 11M21 11C21 5.47715 16.5228 1 11 1C5.47715 1 1 5.47715 1 11M21 11H14.6842M1 11H5.21053M18.8947 11C18.8947 15.3601 15.3601 18.8947 11 18.8947M3.10526 11C3.10526 6.63986 6.63986 3.10526 11 3.10526M5.21053 11C5.21053 14.1974 7.80256 16.7895 11 16.7895V14.6842M5.21053 11C5.21053 7.80256 7.80256 5.21053 11 5.21053M14.6842 11C14.6842 13.0347 13.0347 14.6842 11 14.6842M14.6842 11C14.6842 8.96527 13.0347 7.31579 11 7.31579C8.96527 7.31579 7.31579 8.96527 7.31579 11C7.31579 13.0347 8.96527 14.6842 11 14.6842" stroke="#8B8B8B" stroke-width="1.25" stroke-linecap="round"/>
</svg>
