<svg width="20" height="20" viewBox="0 0 20 20" fill="none" xmlns="http://www.w3.org/2000/svg">
<path d="M2.20833 20C2.02047 20 1.8403 19.9247 1.70747 19.7908C1.57463 19.6568 1.5 19.4752 1.5 19.2857V1.61333C1.49995 1.42604 1.54858 1.24201 1.64104 1.07959C1.73351 0.91716 1.86659 0.782012 2.027 0.687619C2.5625 0.373333 3.642 0 5.75 0C7.39711 0 9.23972 0.657143 10.8651 1.23524C12.1741 1.7019 13.4113 2.14286 14.25 2.14286C15.3299 2.13942 16.3984 1.91927 17.3931 1.49524C17.5143 1.44369 17.6463 1.42318 17.7773 1.43556C17.9082 1.44794 18.0341 1.49281 18.1437 1.56618C18.2533 1.63954 18.3432 1.73912 18.4054 1.85603C18.4675 1.97293 18.5001 2.10354 18.5 2.23619V12.0286C18.4998 12.2022 18.4494 12.3719 18.3549 12.5171C18.2605 12.6622 18.1261 12.7764 17.9683 12.8457C17.5829 13.0162 16.1757 13.5714 14.25 13.5714C13.1809 13.5714 11.8417 13.2524 10.425 12.9143C8.83267 12.5352 7.18556 12.1429 5.75 12.1429C4.118 12.1429 3.28217 12.3924 2.91667 12.5495V19.2857C2.91667 19.4752 2.84204 19.6568 2.7092 19.7908C2.57636 19.9247 2.3962 20 2.20833 20V20Z" fill="#00FF00"/>
</svg>
