<svg width="12" height="12" viewBox="0 0 12 12" fill="none" xmlns="http://www.w3.org/2000/svg">
<g clip-path="url(#clip0_101_510)">
<path d="M11.6294 10.0694L10.0446 3.72974C9.96211 3.40009 9.68781 3.17158 9.37466 3.17158H8.06715C8.14462 2.95348 8.19475 2.72192 8.19475 2.47713C8.19475 1.32652 7.26203 0.393799 6.11142 0.393799C4.96081 0.393799 4.02809 1.32652 4.02809 2.47713C4.02809 2.72192 4.078 2.95348 4.15569 3.17158H2.84818C2.53503 3.17158 2.26051 3.40031 2.17826 3.72974L0.592972 10.0694C0.4122 10.7922 0.911115 11.5047 1.59796 11.5047H10.6247C11.3113 11.5047 11.8102 10.7922 11.6294 10.0694ZM6.1112 3.17136C5.72839 3.17136 5.41676 2.85973 5.41676 2.47692C5.41676 2.0941 5.72839 1.78247 6.1112 1.78247C6.49401 1.78247 6.80565 2.0941 6.80565 2.47692C6.80565 2.85973 6.49401 3.17136 6.1112 3.17136Z" fill="#B0B0B0"/>
</g>
<defs>
<clipPath id="clip0_101_510">
<rect width="12" height="12" fill="white"/>
</clipPath>
</defs>
</svg>
